<?xml version="1.0" standalone="no"?>
<!DOCTYPE svg PUBLIC "-//W3C//DTD SVG 20010904//EN"
 "http://www.w3.org/TR/2001/REC-SVG-20010904/DTD/svg10.dtd">
<svg version="1.0" xmlns="http://www.w3.org/2000/svg"
 width="600.000000pt" height="600.000000pt" viewBox="0 0 600.000000 600.000000"
 preserveAspectRatio="xMidYMid meet">
<metadata>
Created by potrace 1.14, written by Peter Selinger 2001-2017
</metadata>
<g transform="translate(0.000000,600.000000) scale(0.100000,-0.100000)"
fill="#000000" stroke="none">
<path d="M0 3730 l0 -850 3000 0 3000 0 0 120 0 120 -1800 0 -1800 0 0 125 0
125 1800 0 1800 0 0 120 0 120 -1800 0 -1800 0 0 120 0 120 1800 0 1800 0 0
125 0 125 -1800 0 -1800 0 0 120 0 120 1800 0 1800 0 0 120 0 120 -3000 0
-3000 0 0 -850z m257 710 l28 0 -24 -19 c-19 -15 -22 -23 -16 -50 l7 -33 -26
17 c-24 16 -28 16 -52 0 l-26 -17 7 33 c6 27 3 35 -16 50 l-24 19 32 0 c26 0
33 5 43 33 l11 32 14 -32 c11 -26 20 -33 42 -33z m397 0 l31 -1 -23 -19 c-19
-16 -22 -25 -17 -51 l7 -31 -26 17 c-24 16 -28 16 -52 0 l-26 -17 7 33 c6 27
3 35 -16 50 l-24 19 32 0 c26 0 33 5 43 33 l13 32 10 -32 c8 -28 15 -33 41
-33z m357 30 c9 -25 17 -30 42 -30 l32 0 -24 -19 c-19 -15 -22 -23 -16 -50 l7
-33 -26 17 c-24 16 -28 16 -52 0 l-26 -17 7 33 c6 27 3 35 -16 50 l-24 19 26
0 c29 0 49 17 49 42 0 27 10 22 21 -12z m446 -30 l28 0 -24 -19 c-19 -15 -22
-23 -16 -50 l7 -33 -26 17 c-24 16 -28 16 -52 0 l-26 -17 7 33 c6 27 3 35 -16
50 l-24 19 32 0 c26 0 33 5 43 33 l11 32 14 -32 c11 -26 20 -33 42 -33z m397
0 l31 -1 -23 -19 c-19 -16 -22 -25 -17 -51 l7 -31 -26 17 c-24 16 -28 16 -52
0 l-26 -17 7 33 c6 27 3 35 -16 50 l-24 19 32 0 c26 0 33 5 43 33 l13 32 10
-32 c8 -28 15 -33 41 -33z m357 30 c9 -25 17 -30 42 -30 l32 0 -24 -19 c-19
-15 -22 -23 -16 -50 l7 -33 -26 17 c-24 16 -28 16 -52 0 l-26 -17 7 33 c6 27
3 35 -16 50 l-24 19 26 0 c29 0 49 17 49 42 0 27 10 22 21 -12z m-1357 -200
l31 -1 -23 -19 c-19 -16 -22 -25 -17 -51 l7 -31 -26 17 c-24 16 -28 16 -52 0
l-26 -17 7 31 c5 26 2 35 -17 51 l-23 19 32 1 c26 0 33 5 43 33 l13 32 10 -32
c8 -28 15 -33 41 -33z m400 0 l31 -1 -23 -19 c-19 -16 -22 -25 -17 -51 l7 -31
-26 17 c-24 16 -28 16 -52 0 l-26 -17 7 31 c5 26 2 35 -17 51 l-23 19 32 1
c26 0 33 5 43 33 l13 32 10 -32 c8 -28 15 -33 41 -33z m800 0 l31 -1 -23 -19
c-19 -16 -22 -25 -17 -51 l7 -31 -26 17 c-24 16 -28 16 -52 0 l-26 -17 7 31
c5 26 2 35 -17 51 l-23 19 32 1 c26 0 33 5 43 33 l13 32 10 -32 c8 -28 15 -33
41 -33z m-1640 25 c5 -20 13 -25 39 -25 l32 -1 -23 -19 c-19 -16 -22 -25 -17
-51 l7 -31 -26 17 c-24 16 -28 16 -52 0 l-26 -17 7 33 c6 27 3 35 -16 50 l-24
19 32 0 c26 0 34 5 39 25 3 14 10 25 14 25 4 0 11 -11 14 -25z m1200 0 c5 -20
13 -25 39 -25 l32 -1 -23 -19 c-19 -16 -22 -25 -17 -51 l7 -31 -26 17 c-24 16
-28 16 -52 0 l-26 -17 7 33 c6 27 3 35 -16 50 l-24 19 32 0 c26 0 34 5 39 25
3 14 10 25 14 25 4 0 11 -11 14 -25z m-1360 -195 l31 -1 -23 -19 c-19 -16 -22
-25 -17 -51 l7 -31 -26 17 c-24 16 -28 16 -52 0 l-26 -17 7 31 c5 26 2 35 -17
51 l-23 19 32 1 c26 0 33 5 43 33 l13 32 10 -32 c8 -28 15 -33 41 -33z m1200
0 l31 -1 -23 -19 c-19 -16 -22 -25 -17 -51 l7 -31 -26 17 c-24 16 -28 16 -52
0 l-26 -17 7 31 c5 26 2 35 -17 51 l-23 19 32 1 c26 0 33 5 43 33 l13 32 10
-32 c8 -28 15 -33 41 -33z m-840 25 c5 -20 13 -25 39 -25 l32 -1 -23 -19 c-19
-16 -22 -25 -17 -51 l7 -31 -26 17 c-24 16 -28 16 -52 0 l-26 -17 7 31 c5 26
2 35 -17 51 l-23 19 32 1 c26 0 34 5 39 25 3 14 10 25 14 25 4 0 11 -11 14
-25z m400 0 c5 -20 13 -25 39 -25 l32 -1 -23 -19 c-19 -16 -22 -25 -17 -51 l7
-31 -26 17 c-24 16 -28 16 -52 0 l-26 -17 7 31 c5 26 2 35 -17 51 l-23 19 32
1 c26 0 34 5 39 25 3 14 10 25 14 25 4 0 11 -11 14 -25z m800 0 c5 -20 13 -25
39 -25 l32 -1 -23 -19 c-19 -16 -22 -25 -17 -51 l7 -31 -26 17 c-24 16 -28 16
-52 0 l-26 -17 7 31 c5 26 2 35 -17 51 l-23 19 32 1 c26 0 34 5 39 25 3 14 10
25 14 25 4 0 11 -11 14 -25z m400 0 c5 -20 13 -25 39 -25 l32 -1 -23 -19 c-19
-16 -22 -25 -17 -51 l7 -31 -26 17 c-24 16 -28 16 -52 0 l-26 -17 7 31 c5 26
2 35 -17 51 l-23 19 32 1 c26 0 34 5 39 25 3 14 10 25 14 25 4 0 11 -11 14
-25z m-1360 -195 l31 -1 -23 -19 c-19 -16 -22 -25 -17 -51 l7 -31 -26 17 c-24
16 -28 16 -52 0 l-26 -17 7 31 c5 26 2 35 -17 51 l-23 19 32 1 c26 0 33 5 43
33 l13 32 10 -32 c8 -28 15 -33 41 -33z m1200 0 l31 -1 -23 -19 c-19 -16 -22
-25 -17 -51 l7 -31 -26 17 c-24 16 -28 16 -52 0 l-26 -17 7 31 c5 26 2 35 -17
51 l-23 19 32 1 c26 0 33 5 43 33 l13 32 10 -32 c8 -28 15 -33 41 -33z m-1640
25 c5 -20 13 -25 39 -25 l32 -1 -23 -19 c-19 -16 -22 -25 -17 -51 l7 -31 -26
17 c-24 16 -28 16 -52 0 l-26 -17 7 31 c5 26 2 35 -17 51 l-23 19 32 1 c26 0
34 5 39 25 3 14 10 25 14 25 4 0 11 -11 14 -25z m800 0 c5 -20 13 -25 39 -25
l32 -1 -23 -19 c-19 -16 -22 -25 -17 -51 l7 -31 -26 17 c-24 16 -28 16 -52 0
l-26 -17 7 31 c5 26 2 35 -17 51 l-23 19 32 1 c26 0 34 5 39 25 3 14 10 25 14
25 4 0 11 -11 14 -25z m400 0 c5 -20 13 -25 39 -25 l32 -1 -23 -19 c-19 -16
-22 -25 -17 -51 l7 -31 -26 17 c-24 16 -28 16 -52 0 l-26 -17 7 31 c5 26 2 35
-17 51 l-23 19 32 1 c26 0 34 5 39 25 3 14 10 25 14 25 4 0 11 -11 14 -25z
m-1360 -195 l31 -1 -23 -19 c-19 -16 -22 -25 -17 -51 l7 -31 -26 17 c-24 16
-28 16 -52 0 l-26 -17 7 31 c5 26 2 35 -17 51 l-23 19 32 1 c26 0 33 5 43 33
l13 32 10 -32 c8 -28 15 -33 41 -33z m1200 0 l31 -1 -23 -19 c-19 -16 -22 -25
-17 -51 l7 -31 -26 17 c-24 16 -28 16 -52 0 l-26 -17 7 31 c5 26 2 35 -17 51
l-23 19 32 1 c26 0 33 5 43 33 l13 32 10 -32 c8 -28 15 -33 41 -33z m-840 25
c5 -20 13 -25 39 -25 l32 -1 -23 -19 c-19 -16 -22 -25 -17 -51 l7 -31 -26 17
c-24 16 -28 16 -52 0 l-26 -17 7 31 c5 26 2 35 -17 51 l-23 19 32 1 c26 0 34
5 39 25 3 14 10 25 14 25 4 0 11 -11 14 -25z m400 0 c5 -20 13 -25 39 -25 l32
-1 -23 -19 c-19 -16 -22 -25 -17 -51 l7 -31 -26 17 c-24 16 -28 16 -52 0 l-26
-17 7 31 c5 26 2 35 -17 51 l-23 19 32 1 c26 0 34 5 39 25 3 14 10 25 14 25 4
0 11 -11 14 -25z m800 0 c5 -20 13 -25 39 -25 l32 -1 -23 -19 c-19 -16 -22
-25 -17 -51 l7 -31 -26 17 c-24 16 -28 16 -52 0 l-26 -17 7 31 c5 26 2 35 -17
51 l-23 19 32 1 c26 0 34 5 39 25 3 14 10 25 14 25 4 0 11 -11 14 -25z m400 0
c5 -20 13 -25 39 -25 l32 -1 -23 -19 c-19 -16 -22 -25 -17 -51 l7 -31 -26 17
c-24 16 -28 16 -52 0 l-26 -17 7 31 c5 26 2 35 -17 51 l-23 19 32 1 c26 0 34
5 39 25 3 14 10 25 14 25 4 0 11 -11 14 -25z m-1362 -195 l31 0 -22 -24 c-17
-18 -20 -30 -15 -52 l7 -28 -26 17 c-26 17 -28 17 -53 0 l-26 -17 7 32 c5 27
3 36 -17 52 l-23 19 32 1 c26 0 33 5 43 33 l12 32 9 -32 c8 -28 14 -33 41 -33z
m1200 0 l31 0 -22 -24 c-17 -18 -20 -30 -15 -52 l7 -28 -26 17 c-26 17 -28 17
-53 0 l-26 -17 7 32 c5 27 3 36 -17 52 l-23 19 32 1 c26 0 33 5 43 33 l12 32
9 -32 c8 -28 14 -33 41 -33z m-1638 25 c5 -20 13 -25 38 -25 l31 0 -22 -24
c-17 -18 -20 -30 -15 -52 l7 -28 -26 17 c-25 16 -29 16 -52 1 l-25 -16 6 31
c5 25 2 35 -17 51 l-24 19 32 1 c26 0 34 5 39 25 3 14 10 25 14 25 4 0 11 -11
14 -25z m800 0 c5 -20 13 -25 38 -25 l31 0 -22 -24 c-17 -18 -20 -30 -15 -51
l7 -27 -26 17 c-24 15 -27 15 -53 -1 l-26 -18 7 32 c5 27 3 36 -17 52 l-23 19
32 1 c26 0 34 5 39 25 3 14 10 25 14 25 4 0 11 -11 14 -25z m400 0 c5 -20 13
-25 38 -25 l31 0 -22 -24 c-17 -18 -20 -30 -15 -52 l7 -28 -26 17 c-25 16 -29
16 -52 1 l-25 -16 6 31 c5 25 2 35 -17 51 l-24 19 32 1 c26 0 34 5 39 25 3 14
10 25 14 25 4 0 11 -11 14 -25z m-1400 -170 c5 -20 13 -25 39 -25 l32 -1 -23
-19 c-20 -16 -22 -25 -17 -52 l7 -32 -26 17 c-25 17 -27 17 -52 0 l-26 -17 7
32 c5 27 3 36 -17 52 l-23 19 32 1 c26 0 34 5 39 25 3 14 10 25 14 25 4 0 11
-11 14 -25z m400 0 c5 -20 13 -25 39 -25 l32 -1 -23 -19 c-19 -16 -22 -25 -17
-51 l7 -31 -25 17 c-24 15 -27 15 -53 -1 l-26 -18 7 32 c5 27 3 36 -17 52
l-23 19 32 1 c26 0 34 5 39 25 3 14 10 25 14 25 4 0 11 -11 14 -25z m400 0 c5
-20 13 -25 39 -25 l32 -1 -23 -19 c-20 -16 -22 -25 -17 -52 l7 -32 -26 17
c-24 16 -28 16 -51 1 l-25 -16 6 31 c5 25 2 35 -17 51 l-24 19 32 1 c26 0 34
5 39 25 3 14 10 25 14 25 4 0 11 -11 14 -25z m400 0 c5 -20 13 -25 39 -25 l32
-1 -23 -19 c-20 -16 -22 -25 -17 -52 l7 -32 -26 17 c-25 17 -27 17 -52 0 l-26
-17 7 32 c5 27 3 36 -17 52 l-23 19 32 1 c26 0 34 5 39 25 3 14 10 25 14 25 4
0 11 -11 14 -25z m400 0 c5 -20 13 -25 39 -25 l32 -1 -23 -19 c-19 -16 -22
-25 -17 -51 l7 -31 -25 17 c-24 15 -27 15 -53 -1 l-26 -18 7 32 c5 27 3 36
-17 52 l-23 19 32 1 c26 0 34 5 39 25 3 14 10 25 14 25 4 0 11 -11 14 -25z
m400 0 c5 -20 13 -25 39 -25 l32 -1 -23 -19 c-20 -16 -22 -25 -17 -52 l7 -32
-26 17 c-24 16 -28 16 -51 1 l-25 -16 6 31 c5 25 2 35 -17 51 l-24 19 32 1
c26 0 34 5 39 25 3 14 10 25 14 25 4 0 11 -11 14 -25z m-1800 -170 c5 -20 13
-25 38 -25 l31 0 -22 -24 c-17 -18 -20 -30 -15 -52 l7 -28 -26 17 c-25 16 -29
16 -52 1 l-25 -16 6 31 c5 25 2 35 -17 51 l-24 19 32 1 c26 0 34 5 39 25 3 14
10 25 14 25 4 0 11 -11 14 -25z m400 0 c5 -20 13 -25 38 -25 l31 0 -22 -24
c-17 -18 -20 -30 -15 -52 l7 -28 -26 17 c-26 17 -28 17 -53 0 l-26 -17 7 32
c5 27 3 36 -17 52 l-23 19 32 1 c26 0 34 5 39 25 3 14 10 25 14 25 4 0 11 -11
14 -25z m400 0 c5 -20 13 -25 38 -25 l31 0 -22 -24 c-17 -18 -20 -30 -15 -52
l7 -28 -26 17 c-26 17 -28 17 -53 0 l-26 -17 7 32 c5 27 3 36 -17 52 l-23 19
32 1 c26 0 34 5 39 25 3 14 10 25 14 25 4 0 11 -11 14 -25z m400 0 c5 -20 13
-25 38 -25 l31 0 -22 -24 c-17 -18 -20 -30 -15 -52 l7 -28 -26 17 c-25 16 -29
16 -52 1 l-25 -16 6 31 c5 25 2 35 -17 51 l-24 19 32 1 c26 0 34 5 39 25 3 14
10 25 14 25 4 0 11 -11 14 -25z m400 0 c5 -20 13 -25 38 -25 l31 0 -22 -24
c-17 -18 -20 -30 -15 -52 l7 -28 -26 17 c-26 17 -28 17 -53 0 l-26 -17 7 32
c5 27 3 36 -17 52 l-23 19 32 1 c26 0 34 5 39 25 3 14 10 25 14 25 4 0 11 -11
14 -25z m-1800 -170 c5 -20 13 -25 38 -25 l31 0 -22 -24 c-17 -18 -20 -30 -15
-52 l7 -28 -26 17 c-26 17 -28 17 -54 0 l-26 -17 7 28 c5 22 2 34 -15 52 l-22
24 31 0 c25 0 33 5 38 25 3 14 10 25 14 25 4 0 11 -11 14 -25z m400 0 c5 -20
13 -25 38 -25 l31 0 -22 -24 c-17 -18 -20 -30 -15 -52 l7 -28 -26 17 c-26 17
-28 17 -54 0 l-26 -17 7 28 c5 22 2 34 -15 52 l-22 24 31 0 c25 0 33 5 38 25
3 14 10 25 14 25 4 0 11 -11 14 -25z m400 0 c5 -20 13 -25 38 -25 l31 0 -22
-24 c-17 -18 -20 -30 -15 -52 l7 -28 -27 18 c-25 16 -29 16 -45 2 -25 -23 -32
-20 -25 10 5 18 0 32 -17 50 l-22 24 31 0 c25 0 33 5 38 25 3 14 10 25 14 25
4 0 11 -11 14 -25z m400 0 c5 -20 13 -25 38 -25 l31 0 -22 -24 c-17 -18 -20
-30 -15 -52 l7 -28 -26 17 c-26 17 -28 17 -54 0 l-26 -17 7 28 c5 22 2 34 -15
52 l-22 24 31 0 c25 0 33 5 38 25 3 14 10 25 14 25 4 0 11 -11 14 -25z m400 0
c5 -20 13 -25 38 -25 l31 0 -22 -24 c-17 -18 -20 -30 -15 -52 l7 -28 -26 17
c-26 17 -28 17 -54 0 l-26 -17 7 28 c5 22 2 34 -15 52 l-22 24 31 0 c25 0 33
5 38 25 3 14 10 25 14 25 4 0 11 -11 14 -25z m400 0 c5 -20 13 -25 38 -25 l31
0 -22 -24 c-17 -18 -20 -30 -15 -52 l7 -28 -27 18 c-25 16 -29 16 -45 2 -25
-23 -32 -20 -25 10 5 18 0 32 -17 50 l-22 24 31 0 c25 0 33 5 38 25 3 14 10
25 14 25 4 0 11 -11 14 -25z"/>
<path d="M0 2510 l0 -120 3000 0 3000 0 0 120 0 120 -3000 0 -3000 0 0 -120z"/>
<path d="M0 2025 l0 -125 3000 0 3000 0 0 125 0 125 -3000 0 -3000 0 0 -125z"/>
<path d="M0 1540 l0 -120 3000 0 3000 0 0 120 0 120 -3000 0 -3000 0 0 -120z"/>
</g>
</svg>
